<svg id="Capa_1" enable-background="new 0 0 512.298 512.298" height="512" viewBox="0 0 512.298 512.298" width="512" xmlns="http://www.w3.org/2000/svg"><g><g><g><path d="m80.789 460.137h-41.417c-3.866 0-7-3.134-7-7v-404.306c0-3.866 3.134-7 7-7h41.417l3 3.818v411.488z" fill="#e19974"/><g fill="#f07281"><path d="m129.205 504.798-24.208-10.229-24.208 10.229v-44.661l4.235-3h40.25l3.931 3z"/><path d="m129.205 41.831v-27.331c0-3.866-3.134-7-7-7h-34.416c-3.866 0-7 3.134-7 7v27.331l3.736 3h41.125z"/><path d="m366.373 158.089h-23l-3-3.273v-52.667l3-4.061h23c3.866 0 7 3.134 7 7v46c0 3.867-3.134 7.001-7 7.001z"/></g><path d="m366.373 278.089h-23l-3-4.106v-51.167l3-4.727h23c3.866 0 7 3.134 7 7v46c0 3.866-3.134 7-7 7z" fill="#5f99d7"/><path d="m366.373 398.089h-23l-3-3.773v-52l3-4.227h23c3.866 0 7 3.134 7 7v46c0 3.866-3.134 7-7 7z" fill="#fff0ad"/><path d="m52.372 453.137v-404.306c0-3.866 3.134-7 7-7h-20c-3.866 0-7 3.134-7 7v404.306c0 3.866 3.134 7 7 7h20c-3.866 0-7-3.134-7-7z" fill="#dc8758"/><path d="m336.373 460.137h-255.584v-418.306h255.584c3.866 0 7 3.134 7 7v404.306c0 3.866-3.134 7-7 7z" fill="#fedba6"/><path d="m110.789 405.149v-363.318h-30v418.306h255.584c3.866 0 7-3.134 7-7v-17.988h-202.584c-16.569 0-30-13.431-30-30z" fill="#fece85"/><circle cx="210.347" cy="198.331" fill="#8ac9fe" r="82.786"/><path d="m157.561 198.331c0-40.597 29.23-74.344 67.786-81.405-4.867-.891-9.875-1.381-15-1.381-45.722 0-82.786 37.065-82.786 82.786 0 45.722 37.065 82.786 82.786 82.786 5.125 0 10.133-.49 15-1.381-38.556-7.061-67.786-40.808-67.786-81.405z" fill="#60b7ff"/><path d="m127.561 198.331c0 3.692.266 7.319.735 10.883l28.754 6.163 30.823 19.311 22.189-13.154-11.094-30.346 11.094-25.36-22.179-47.172c-34.801 9.793-60.322 41.743-60.322 79.675z" fill="#b0ef9a"/><path d="m187.05 215.376-28.754-6.163c-.468-3.564-.735-7.191-.735-10.883 0-28.249 14.16-53.173 35.761-68.106l-5.44-11.569c-34.801 9.794-60.321 41.744-60.321 79.676 0 3.692.266 7.319.735 10.883l28.754 6.163 30.823 19.311 15.415-9.138z" fill="#9be27d"/><path d="m293.133 198.331c0-10.486-1.969-20.507-5.526-29.739l-31.558 15.786v31.999l21.661 30.046c9.698-13.559 15.423-30.152 15.423-48.092z" fill="#b0ef9a"/></g><g><path d="m449.708 403.069-6.059 3h-27.25l-6.691-3v-320.536l5.191-3.316h30.5l4.309 3.316z" fill="#5f99d7"/><path d="m449.708 82.533h-40v-43.464c0-11.046 8.954-20 20-20 11.046 0 20 8.954 20 20z" fill="#eaf6ff"/><path d="m429.708 82.533v-43.464c0-7.399 4.028-13.843 10-17.302-2.944-1.705-6.353-2.698-10-2.698-11.046 0-20 8.954-20 20v43.464z" fill="#d8ecfe"/><path d="m449.708 403.069-12.5 70h-7.5-7.5l-12.5-70z" fill="#eaf6ff"/><path d="m429.708 403.069h-20l12.5 70h7.5 7.5l2.5-14z" fill="#d8ecfe"/><path d="m409.708 82.533h20v320.535h-20z" fill="#3c87d0"/></g></g><g><path d="m292.66 332.064h-165c-4.143 0-7.5 3.358-7.5 7.5s3.357 7.5 7.5 7.5h165c4.143 0 7.5-3.358 7.5-7.5s-3.358-7.5-7.5-7.5z"/><path d="m292.66 384.617h-165c-4.143 0-7.5 3.358-7.5 7.5s3.357 7.5 7.5 7.5h165c4.143 0 7.5-3.358 7.5-7.5s-3.358-7.5-7.5-7.5z"/><path d="m294.741 165.994c-.014-.037-.028-.074-.042-.11-13.062-33.8-45.901-57.839-84.253-57.839-49.784 0-90.286 40.502-90.286 90.286s40.502 90.287 90.286 90.287c30.076 0 56.76-14.786 73.177-37.466.211-.259.409-.526.581-.807 10.406-14.713 16.529-32.661 16.529-52.013 0-11.392-2.126-22.293-5.992-32.338zm-110.726-38.148 17.909 38.093-9.729 22.242c-.774 1.769-.836 3.768-.173 5.581l8.955 24.496-12.898 7.646-26.948-16.883c-.74-.464-1.556-.795-2.409-.978l-23.4-5.016c-.096-1.555-.161-3.118-.161-4.697-.001-32.214 20.343-59.757 48.854-70.484zm26.431 145.771c-34.361 0-63.398-23.148-72.391-54.663l16.231 3.479 29.704 18.609c1.216.763 2.599 1.145 3.981 1.145 1.321 0 2.645-.349 3.824-1.048l22.188-13.154c3.106-1.842 4.46-5.635 3.22-9.027l-10.061-27.521 9.888-22.604c.867-1.981.836-4.24-.084-6.197l-18.186-38.681c3.81-.596 7.711-.911 11.685-.911 29.581 0 55.22 17.155 67.522 42.032l-25.174 12.593c-2.54 1.271-4.145 3.867-4.145 6.708v32c0 1.574.495 3.109 1.416 4.386l18.388 25.507c-13.819 16.693-34.691 27.347-58.006 27.347zm66.853-40.728-13.65-18.934v-24.944l19.614-9.811c1.607 6.112 2.47 12.521 2.47 19.13 0 12.454-3.058 24.201-8.434 34.559z"/><path d="m457.326 75.197v-36.452c0-15.164-12.337-27.5-27.5-27.5s-27.5 12.336-27.5 27.5v43.464c0 .039.005.077.006.116v320.744c0 .044.006.086.007.129.003.189.011.377.029.566.007.081.02.161.03.242.016.127.024.254.047.381l12.5 70c.639 3.577 3.749 6.182 7.383 6.182v12.5c0 4.142 3.357 7.5 7.5 7.5s7.5-3.358 7.5-7.5v-12.5c3.634 0 6.744-2.604 7.383-6.182l12.454-69.741c.073-.34.117-.69.142-1.045.002-.033.003-.066.005-.1.008-.144.022-.286.022-.432v-51.19c0-4.142-3.357-7.5-7.5-7.5s-7.5 3.358-7.5 7.5v43.69h-25v-305.86h25v229.49c0 4.142 3.357 7.5 7.5 7.5s7.5-3.358 7.5-7.5v-228.852c8.516 1.559 14.995 9.02 14.995 17.979v130.228c0 4.142 3.357 7.5 7.5 7.5s7.5-3.358 7.5-7.5v-130.228c-.002-17.247-13.185-31.47-30.003-33.129zm-16.458 335.372-9.821 55h-2.441l-9.821-55zm-23.542-335.86v-35.964c0-6.893 5.607-12.5 12.5-12.5s12.5 5.607 12.5 12.5v35.964z"/><path d="m373.472 90.588h-22.501v-48.759c0-4.142-3.357-7.5-7.5-7.5h-52.64c-4.143 0-7.5 3.358-7.5 7.5s3.357 7.5 7.5 7.5h45.14v403.3h-247.58v-403.3h40.884c.01 0 .019.001.029.001s.019-.001.029-.001h128.818c4.143 0 7.5-3.358 7.5-7.5s-3.357-7.5-7.5-7.5h-121.347v-26.829c0-4.142-3.357-7.5-7.5-7.5h-48.417c-4.143 0-7.5 3.358-7.5 7.5v26.829h-40.916c-4.143 0-7.5 3.358-7.5 7.5v263.35c0 4.142 3.357 7.5 7.5 7.5s7.5-3.358 7.5-7.5v-255.85h33.42v403.3h-33.42v-114.77c0-4.142-3.357-7.5-7.5-7.5s-7.5 3.358-7.5 7.5v122.27c0 4.142 3.357 7.5 7.5 7.5h40.916v37.169c0 2.514 1.26 4.861 3.355 6.251 1.247.827 2.691 1.249 4.146 1.249.988 0 1.98-.195 2.918-.591l21.29-8.996 21.289 8.996c2.317.979 4.97.731 7.063-.658 2.096-1.39 3.355-3.737 3.355-6.251v-37.169h206.667c4.143 0 7.5-3.358 7.5-7.5v-54.541h22.501c4.143 0 7.5-3.358 7.5-7.5v-60c0-4.142-3.357-7.5-7.5-7.5h-22.501v-45h22.501c4.143 0 7.5-3.358 7.5-7.5v-60c0-4.142-3.357-7.5-7.5-7.5h-22.501v-45h22.501c4.143 0 7.5-3.358 7.5-7.5v-60c.001-4.142-3.356-7.5-7.499-7.5zm-251.668-75.588v19.329h-33.417v-19.329zm0 478.487-13.789-5.827c-1.865-.788-3.973-.788-5.838 0l-13.79 5.827v-25.858h33.417zm244.168-147.899v45h-15.001v-45zm0-120v45h-15.001v-45zm0-75h-15.001v-45h15.001z"/></g></g></svg>