<svg height="512" viewBox="0 0 512 512" width="512" xmlns="http://www.w3.org/2000/svg"><g id="Flat"><path d="m416 456h-160l35.292-134.108a24 24 0 0 1 23.208-17.892h110.367a24 24 0 0 1 23.21 30.108z" fill="#348ed8"/><path d="m392 224 24-16-63.824-62.265 31.824-41.735 66.379 49.784a74.053 74.053 0 0 1 29.621 59.242 74.051 74.051 0 0 1 -37.312 64.3l-18.688 10.674z" fill="#fcb079"/><path d="m144 200 64-24-16-40 104-16 8-48h-121.356a58.6 58.6 0 0 0 -53.867 35.52 58.6 58.6 0 0 0 -1.731 41.618z" fill="#fcb079"/><path d="m289.024 75.9-46.984 39.215 16.867 7.022-18.069 41.463a17.823 17.823 0 0 0 9.64 23.606l16.868 7.023-25.3 58.044 67.471 28.09 72.283-165.842z" fill="#fdc8a2"/><path d="m389.02 97.94-32.52 74.62-6.03-31.89-29.25 54.91a24 24 0 0 1 -31.53 10.37l-39.21-18.75a17.811 17.811 0 0 1 -9.64-23.6l5.71-13.11 7.24-16.59 5.12-11.76 42.17 17.55 39.26-27.52a9.012 9.012 0 0 0 -.71-15.21l-50.61-21.06a26.882 26.882 0 0 1 -16.69-24.78 26.59 26.59 0 0 1 2.23-10.63 27.823 27.823 0 0 1 36.15-14.34l59.03 24.57a35.642 35.642 0 0 1 19.28 47.22z" fill="#91563a"/><path d="m286.005 99.796h18.09v16h-18.09z" fill="#91563a" transform="matrix(.4 -.917 .917 .4 78.346 335.202)"/><path d="m144 200 64-24 24 48 104 32 56-32 32 64-64 48-40 120h-200l48-184z" fill="#d65246"/><path d="m284.1 155.87a22.537 22.537 0 0 1 -13.71 4.14 34.8 34.8 0 0 1 -12.07-2.27 34.242 34.242 0 0 1 -11.77-7.25l7.24-16.59c.77 2.07 2.95 5.94 10.1 8.85 5.48 2.22 9.55 1.13 10.52.38z" fill="#fdc8a2"/><path d="m24 456h464v32h-464z" fill="#91563a"/><path d="m56 424h240v32h-240z" fill="#cececc"/><path d="m203.8 456h-135.508a16 16 0 0 1 -15.459-11.877l-28.355-106.332a14.148 14.148 0 0 1 -.478-3.645 14.146 14.146 0 0 1 14.146-14.146h141.182a16 16 0 0 1 15.572 12.335l24.471 104a16 16 0 0 1 -15.571 19.665z" fill="#dfdfdd"/><ellipse cx="119.937" cy="392" fill="#f1f1f1" rx="15.31" ry="16.721" transform="matrix(.691 -.723 .723 .691 -246.21 207.648)"/><path d="m384 352h72v104h-72z" fill="#d65246"/><path d="m476.37 368h-20.37v16h20.37a3.634 3.634 0 0 1 3.63 3.63v32.74a3.634 3.634 0 0 1 -3.63 3.63h-20.37v16h20.37a19.652 19.652 0 0 0 19.63-19.63v-32.74a19.652 19.652 0 0 0 -19.63-19.63z" fill="#c7483c"/></g></svg>