<?xml version="1.0" standalone="no"?>
<!DOCTYPE svg PUBLIC "-//W3C//DTD SVG 1.1//EN" "http://www.w3.org/Graphics/SVG/1.1/DTD/svg11.dtd">
<svg xmlns="http://www.w3.org/2000/svg">
<defs >
<font id="Cuprum" horiz-adv-x="451" ><font-face
    font-family="Cuprum"
    units-per-em="1000"
    panose-1="0 0 5 0 0 0 0 0 0 0"
    ascent="895"
    descent="-260"
    alphabetic="0" />
<glyph unicode=" " glyph-name="space" horiz-adv-x="250" />
<glyph unicode="!" glyph-name="exclam" horiz-adv-x="260" d="M80 185L60 700H200L180 185H80ZM70 -10V110H190V-10H70Z" />
<glyph unicode="&quot;" glyph-name="quotedbl" horiz-adv-x="370" d="M235 465L210 700H330L305 465H235ZM65 465L40 700H160L135 465H65Z" />
<glyph unicode="#" glyph-name="numbersign" horiz-adv-x="590" d="M80 0L110 195H20V275H124L147 425H50V505H160L190 700H305L275 505H365L395 700H510L480 505H570V425H466L443 275H540V195H430L400 0H285L315 195H225L195 0H80ZM228 275H339L362 425H251L228 275Z" />
<glyph unicode="$" glyph-name="dollar" horiz-adv-x="465" d="M200 -90V-10H195Q143 -10 101 -4T35 10V65L200 66V308Q170 322 140 338T85 379T45 439T30 530Q30 605 73 652T200 708V790H270V709Q311 708 343 702T395 690V635H270V392Q299 378 328 362T382 322T420
265T435 180Q435 104 396 57T270 -4V-90H200ZM270 85Q293 99 304 123T315 180Q315 211 303 232T270 269V85ZM200 432V623Q150 596 150 530Q150 495 164 472T200 432Z" />
<glyph unicode="%" glyph-name="percent" horiz-adv-x="720" d="M105 0L495 700H615L225 0H105ZM540 -10Q469 -10 427 31T385 140Q385 208 427 249T540 290Q611 290 653 249T695 140Q695 73 653 32T540 -10ZM540 60Q563 60 579 79T595 140Q595 181 579 200T540
220Q518 220 502 201T485 140Q485 99 501 80T540 60ZM180 410Q109 410 67 451T25 560Q25 628 67 669T180 710Q251 710 293 669T335 560Q335 493 293 452T180 410ZM180 480Q203 480 219 499T235 560Q235 601 219 620T180 640Q158 640 142 621T125 560Q125 519 141
500T180 480Z" />
<glyph unicode="&amp;" glyph-name="ampersand" horiz-adv-x="545" d="M210 -10Q131 -10 83 40T35 180Q35 225 41 266T55 330H150V180Q150 133 161 108T187 74T215 65Q230 65 244 75T272 106T295 160Q244 231 211 284T157 378T129 456T120 530Q120 613 169 661T305
710Q358 710 400 704T465 690V635H325Q291 635 266 607T240 530Q240 505 244 479T258 424T288 359T340 275L385 390H505L415 170L535 0H405L358 68Q341 42 321 25T274 -1T210 -10Z" />
<glyph unicode="&apos;" glyph-name="quotesingle" horiz-adv-x="200" d="M65 465L40 700H160L135 465H65Z" />
<glyph unicode="(" glyph-name="parenleft" horiz-adv-x="266" d="M210 -190Q150 -115 115 -31T65 134T50 280Q50 345 65 426T115 591T210 750L266 720Q220 615 200 512T180 280Q180 153 200 49T266 -160L210 -190Z" />
<glyph unicode=")" glyph-name="parenright" horiz-adv-x="266" d="M56 -190L0 -160Q46 -55 66 49T86 280Q86 408 66 511T0 720L56 750Q116 675 151 591T201 426T216 280Q216 215 201 134T151 -31T56 -190Z" />
<glyph unicode="*" glyph-name="asterisk" horiz-adv-x="450" d="M163 310L77 357L139 474L20 500L42 592L175 563V700H275V563L408 592L430 500L311 474L373 357L287 310L225 428L163 310Z" />
<glyph unicode="+" glyph-name="plus" horiz-adv-x="450" d="M180 90V260H30V340H180V510H270V340H420V260H270V90H180Z" />
<glyph unicode="," glyph-name="comma" horiz-adv-x="195" d="M40 -120V110H160L120 -120H40Z" />
<glyph unicode="-" glyph-name="hyphen" horiz-adv-x="380" d="M30 260V340H350V260H30Z" />
<glyph unicode="." glyph-name="period" horiz-adv-x="200" d="M40 -10V110H160V-10H40Z" />
<glyph unicode="/" glyph-name="slash" horiz-adv-x="420" d="M0 0L300 700H420L120 0H0Z" />
<glyph unicode="0" glyph-name="zero" horiz-adv-x="530" d="M265 -10Q200 -10 151 23T73 136T45 350Q45 485 73 563T150 676T265 710Q330 710 379 676T457 564T485 350Q485 215 457 136T380 24T265 -10ZM265 60Q282 60 299 72T332 117T356 205T365 350Q365 438
356 494T332 583T300 627T265 640Q248 640 231 628T198 583T174 495T165 350Q165 262 174 206T198 117T230 73T265 60Z" />
<glyph unicode="1" glyph-name="one" horiz-adv-x="305" d="M115 0V620H10V680Q33 688 75 694T170 700H235V0H115Z" />
<glyph unicode="2" glyph-name="two" horiz-adv-x="420" d="M15 0V90Q83 167 131 225T210 329T255 416T270 500Q270 571 242 603T165 635H25V690Q48 698 90 704T185 710Q286 710 338 658T390 500Q390 453 370 404T315 303T234 196T135 80H385V0H15Z" />
<glyph unicode="3" glyph-name="three" horiz-adv-x="435" d="M175 -10Q123 -10 81 -4T15 10V65H155Q219 65 249 95T280 190Q280 261 250 293T155 326H75V405H145Q201 405 230 435T260 525Q260 578 232 606T155 635H25V690Q48 698 90 704T185 710Q279 710 329
661T380 525Q380 469 353 431T285 372V368Q320 357 346 330T386 267T400 190Q400 93 346 42T175 -10Z" />
<glyph unicode="4" glyph-name="four" horiz-adv-x="485" d="M285 0V170H25V260L275 700H405V250H460V170H405V0H285ZM135 250H285V520H281L135 250Z" />
<glyph unicode="5" glyph-name="five" horiz-adv-x="465" d="M205 -10Q153 -10 111 -4T45 10V65H185Q249 65 279 97T310 200Q310 275 280 307T185 340H55V700H405V625H175V415H205Q321 415 375 362T430 200Q430 95 376 43T205 -10Z" />
<glyph unicode="6" glyph-name="six" horiz-adv-x="475" d="M245 -10Q148 -10 97 42T45 200V420Q45 570 101 640T255 710Q308 710 350 704T415 690V635H285Q250 635 223 615T181 547T165 410Q188 418 214 421T260 425Q346 425 395 372T445 205Q445 96 394 43T245
-10ZM245 60Q279 60 302 93T325 205Q325 288 302 321T215 355H165V200Q165 125 188 93T245 60Z" />
<glyph unicode="7" glyph-name="seven" horiz-adv-x="430" d="M105 0Q128 143 173 295T285 620H20V700H400V610Q333 438 291 291T225 0H105Z" />
<glyph unicode="8" glyph-name="eight" horiz-adv-x="500" d="M250 -10Q141 -10 88 40T35 180Q35 229 53 264T100 324T165 363V367Q138 376 112 397T68 453T50 535Q50 614 101 662T250 710Q348 710 399 662T450 535Q450 488 433 454T389 398T335 367V363Q370 349
399 325T447 265T465 180Q465 90 412 40T250 -10ZM250 60Q291 60 318 90T345 180Q345 236 318 267T250 320Q209 298 182 267T155 180Q155 120 182 90T250 60ZM250 409Q284 421 307 452T330 535Q330 584 305 612T250 640Q220 640 195 612T170 535Q170 483 193 452T250
409Z" />
<glyph unicode="9" glyph-name="nine" horiz-adv-x="475" d="M220 -10Q168 -10 126 -4T60 10V65H190Q225 65 252 85T294 154T310 290Q288 283 261 279T215 275Q129 275 80 329T30 495Q30 604 81 657T230 710Q328 710 379 658T430 500V280Q430 130 374 60T220 -10ZM260
345H310V500Q310 575 287 607T230 640Q196 640 173 607T150 495Q150 413 173 379T260 345Z" />
<glyph unicode=":" glyph-name="colon" horiz-adv-x="200" d="M40 380V500H160V380H40ZM40 -10V110H160V-10H40Z" />
<glyph unicode=";" glyph-name="semicolon" horiz-adv-x="190" d="M40 -120V110H160L120 -120H40ZM40 380V500H160V380H40Z" />
<glyph unicode="&lt;" glyph-name="less" horiz-adv-x="405" d="M365 5L40 200V305L365 500V380L155 257V252L365 125V5Z" />
<glyph unicode="=" glyph-name="equal" horiz-adv-x="450" d="M30 345V430H420V345H30ZM30 170V255H420V170H30Z" />
<glyph unicode="&gt;" glyph-name="greater" horiz-adv-x="405" d="M40 5V125L250 252V257L40 380V500L365 305V200L40 5Z" />
<glyph unicode="?" glyph-name="question" horiz-adv-x="395" d="M105 185Q105 241 119 278T154 342T196 394T231 448T245 520Q245 576 217 605T140 635H10V690Q33 698 75 704T170 710Q264 710 314 660T365 520Q365 469 350 434T312 371T266 317T225 260T205 185H105ZM95
-10V110H215V-10H95Z" />
<glyph unicode="@" glyph-name="at" horiz-adv-x="850" d="M440 -90Q249 -90 147 12T45 310Q45 505 144 607T420 710Q543 710 629 667T760 546T805 365Q805 268 777 207T686 118T520 90L505 120H500Q481 101 458 91T400 80Q358 80 320 104T259 176T235 300Q235
385 259 438T333 515T460 540Q501 540 542 534T605 520V155Q628 155 648 173T682 237T695 365Q695 496 623 568T420 640Q338 640 279 606T187 498T155 310Q155 198 188 126T290 20T460 -15H600V-70Q578 -77 536 -83T440 -90ZM430 150Q449 150 463 156T485 170V470H460Q428
470 404 455T368 402T355 300Q355 245 366 212T395 165T430 150Z" />
<glyph unicode="A" glyph-name="A" horiz-adv-x="540" d="M15 0L195 700H345L525 0H400L356 175H184L140 0H15ZM200 255H339L272 540H268L200 255Z" />
<glyph unicode="B" glyph-name="B" horiz-adv-x="530" d="M245 -10Q189 -10 149 -6T70 10V690Q108 701 148 705T245 710Q358 710 411 661T465 525Q465 480 440 439T370 377V373Q430 352 462 305T495 190Q495 93 438 42T245 -10ZM190 65H245Q309 65 339 96T370
195Q370 266 340 298T245 330H190V65ZM190 405H235Q284 405 312 434T340 520Q340 576 312 605T235 635H190V405Z" />
<glyph unicode="C" glyph-name="C" horiz-adv-x="455" d="M280 -10Q203 -10 151 21T72 131T45 350Q45 490 71 568T147 678T270 710Q323 710 365 704T430 690V635H310Q268 635 235 611T184 525T165 350Q165 238 184 176T238 90T320 65H440V10Q418 3 376 -3T280 -10Z" />
<glyph unicode="D" glyph-name="D" horiz-adv-x="545" d="M245 -10Q189 -10 149 -6T70 10V690Q108 701 148 705T245 710Q328 710 384 676T470 564T500 350Q500 215 471 136T385 24T245 -10ZM190 65H245Q285 65 315 89T363 176T380 350Q380 463 363 524T316 610T245
635H190V65Z" />
<glyph unicode="E" glyph-name="E" horiz-adv-x="475" d="M70 0V700H435V620H190V405H405V325H190V80H435V0H70Z" />
<glyph unicode="F" glyph-name="F" horiz-adv-x="455" d="M70 0V700H435V620H190V390H395V310H190V0H70Z" />
<glyph unicode="G" glyph-name="G" horiz-adv-x="525" d="M300 -10Q213 -10 157 21T73 131T45 350Q45 490 71 568T150 678T280 710Q333 710 375 704T440 690V635H310Q268 635 235 611T184 525T165 350Q165 238 184 176T238 90T320 65H345V380H465V10Q443 3 400
-3T300 -10Z" />
<glyph unicode="H" glyph-name="H" horiz-adv-x="560" d="M70 0V700H190V395H370V700H490V0H370V315H190V0H70Z" />
<glyph unicode="I" glyph-name="I" horiz-adv-x="260" d="M70 0V700H190V0H70Z" />
<glyph unicode="J" glyph-name="J" horiz-adv-x="375" d="M100 -10Q70 -10 45 -4T0 10V65H100Q128 65 149 80T182 134T195 240V700H315V240Q315 150 292 95T221 15T100 -10Z" />
<glyph unicode="K" glyph-name="K" horiz-adv-x="520" d="M70 0V700H190V380L355 700H490L305 355L510 0H375L190 330V0H70Z" />
<glyph unicode="L" glyph-name="L" horiz-adv-x="445" d="M70 0V700H190V80H435V0H70Z" />
<glyph unicode="M" glyph-name="M" horiz-adv-x="760" d="M50 0L90 700H220L378 225H382L540 700H670L710 0H595L568 474H564L435 85H325L196 474H192L165 0H50Z" />
<glyph unicode="N" glyph-name="N" horiz-adv-x="570" d="M70 0V700H190L380 240H385V700H500V0H380L190 460H185V0H70Z" />
<glyph unicode="O" glyph-name="O" horiz-adv-x="550" d="M275 -10Q205 -10 154 23T74 136T45 350Q45 485 73 563T153 676T275 710Q345 710 396 676T476 564T505 350Q505 215 477 136T397 24T275 -10ZM275 60Q296 60 315 73T350 119T375 207T385 350Q385 436 376
492T351 581T316 626T275 640Q254 640 235 627T200 581T175 493T165 350Q165 264 174 208T199 119T234 74T275 60Z" />
<glyph unicode="P" glyph-name="P" horiz-adv-x="515" d="M70 0V690Q108 701 148 705T245 710Q328 710 379 685T455 605T480 460Q480 365 457 308T389 226T275 200Q264 200 237 203T190 210V0H70ZM190 280H245Q283 280 308 296T347 351T360 460Q360 528 347 566T309
619T245 635H190V280Z" />
<glyph unicode="Q" glyph-name="Q" horiz-adv-x="555" d="M275 -10Q205 -10 154 23T74 136T45 350Q45 485 73 563T153 676T275 710Q345 710 396 676T476 564T505 350Q505 238 483 168T430 60Q475 60 501 54T550 40V-10H275ZM275 60Q296 60 315 73T350 119T375
207T385 350Q385 436 376 492T351 581T316 626T275 640Q254 640 235 627T200 581T175 493T165 350Q165 260 175 203T201 115T237 72T275 60Z" />
<glyph unicode="R" glyph-name="R" horiz-adv-x="535" d="M70 0V690Q108 701 148 705T245 710Q328 710 379 686T455 608T480 470Q480 403 466 360T428 291T370 250L505 0H370L255 225H190V0H70ZM190 305H245Q301 305 330 340T360 470Q360 533 347 569T309 620T245
635H190V305Z" />
<glyph unicode="S" glyph-name="S" horiz-adv-x="465" d="M195 -10Q143 -10 101 -4T35 10V65H175Q250 65 282 94T315 180Q315 221 295 246T242 288T173 321T104 362T51 426T30 530Q30 613 82 661T235 710Q288 710 330 704T395 690V635H255Q206 635 178 607T150
530Q150 486 170 460T223 416T292 382T361 341T414 279T435 180Q435 90 379 40T195 -10Z" />
<glyph unicode="T" glyph-name="T" horiz-adv-x="450" d="M165 0V620H10V700H440V620H285V0H165Z" />
<glyph unicode="U" glyph-name="U" horiz-adv-x="550" d="M275 -10Q203 -10 155 15T84 95T60 240V700H180V240Q180 170 192 131T226 76T275 60Q303 60 324 76T357 131T370 240V700H490V240Q490 150 467 95T396 15T275 -10Z" />
<glyph unicode="V" glyph-name="V" horiz-adv-x="520" d="M185 0L15 700H140L258 155H262L380 700H505L335 0H185Z" />
<glyph unicode="W" glyph-name="W" horiz-adv-x="750" d="M140 0L15 700H140L225 195H229L325 570H425L521 195H525L610 700H735L610 0H480L377 390H373L270 0H140Z" />
<glyph unicode="X" glyph-name="X" horiz-adv-x="490" d="M10 0L155 360L25 700H150L245 440L340 700H465L335 360L480 0H355L245 285L135 0H10Z" />
<glyph unicode="Y" glyph-name="Y" horiz-adv-x="480" d="M180 0V210L5 700H130L240 359L350 700H475L300 210V0H180Z" />
<glyph unicode="Z" glyph-name="Z" horiz-adv-x="435" d="M20 0V75L280 620H25V700H415V625L155 80H410V0H20Z" />
<glyph unicode="[" glyph-name="bracketleft" horiz-adv-x="285" d="M70 -180V740H285V670H190V-110H285V-180H70Z" />
<glyph unicode="\" glyph-name="backslash" horiz-adv-x="420" d="M300 0L0 700H120L420 0H300Z" />
<glyph unicode="]" glyph-name="bracketright" horiz-adv-x="285" d="M0 -180V-110H95V670H0V740H215V-180H0Z" />
<glyph unicode="^" glyph-name="asciicircum" horiz-adv-x="475" d="M115 395L30 450L185 700H290L445 450L360 395L240 595H235L115 395Z" />
<glyph unicode="_" glyph-name="underscore" horiz-adv-x="320" d="M0 -80V0H320V-80H0Z" />
<glyph unicode="`" glyph-name="grave" horiz-adv-x="200" d="M99 560L24 690H139L174 560H99Z" />
<glyph unicode="a" glyph-name="a" horiz-adv-x="475" d="M195 -10Q153 -10 118 3T61 50T40 150Q40 215 61 249T120 297T205 310Q228 310 249 307T290 300V340Q290 400 262 420T185 440H85V490Q108 498 141 504T205 510Q273 510 318 497T387 447T410 340V0H325L310
30H305Q289 15 263 3T195 -10ZM235 60Q254 60 268 66T290 80V240H235Q218 240 201 232T172 205T160 150Q160 115 171 96T200 68T235 60Z" />
<glyph unicode="b" glyph-name="b" horiz-adv-x="495" d="M235 -10Q183 -10 146 -3T70 20V700H190V485Q206 496 227 503T275 510Q330 510 370 485T433 402T455 250Q455 155 432 98T359 16T235 -10ZM190 60H235Q265 60 287 76T322 134T335 250Q335 325 323 366T291
424T245 440Q226 440 212 434T190 420V60Z" />
<glyph unicode="c" glyph-name="c" horiz-adv-x="395" d="M250 -10Q180 -10 134 15T64 98T40 250Q40 345 63 402T130 484T240 510Q278 510 313 504T370 490V440H260Q230 440 208 424T173 367T160 250Q160 175 173 134T210 77T270 60H380V10Q358 3 323 -3T250 -10Z" />
<glyph unicode="d" glyph-name="d" horiz-adv-x="495" d="M210 -10Q160 -10 122 15T62 98T40 250Q40 345 62 402T124 484T220 510Q246 510 267 503T305 485V700H425V0H340L325 30H320Q304 15 278 3T210 -10ZM250 60Q269 60 281 66T305 80V420Q298 428 284 434T250
440Q225 440 205 424T172 367T160 250Q160 175 172 134T204 77T250 60Z" />
<glyph unicode="e" glyph-name="e" horiz-adv-x="460" d="M265 -10Q188 -10 138 15T64 98T40 250Q40 345 62 402T127 484T230 510Q290 510 332 485T397 402T420 250V215H160Q160 129 190 95T285 60H395V10Q373 3 338 -3T265 -10ZM160 285H300Q300 350 291 384T266
432T230 445Q210 445 194 432T169 385T160 285Z" />
<glyph unicode="f" glyph-name="f" horiz-adv-x="340" d="M75 0V415H20V490H75V530Q75 600 96 636T152 686T230 700Q250 700 273 697T317 690T350 680V630H270Q250 630 233 622T206 592T195 530V490H330V435Q308 428 273 422T200 415H195V0H75Z" />
<glyph unicode="g" glyph-name="g" horiz-adv-x="490" d="M210 -210Q173 -210 138 -204T80 -190V-140H190Q246 -140 275 -106T305 15Q290 4 268 -3T220 -10Q165 -10 125 15T62 98T40 250Q40 345 64 402T136 484T260 510Q313 510 350 503T425 480V40Q425 -50 402
-105T331 -185T210 -210ZM250 60Q269 60 283 66T305 80V440H260Q230 440 208 424T173 367T160 250Q160 175 172 134T204 77T250 60Z" />
<glyph unicode="h" glyph-name="h" horiz-adv-x="510" d="M70 0V700H190V480Q209 495 234 502T290 510Q333 510 368 497T424 450T445 350V0H325V350Q325 403 300 421T245 440Q226 440 212 434T190 420V0H70Z" />
<glyph unicode="i" glyph-name="i" horiz-adv-x="260" d="M70 0V500H190V0H70ZM70 560V680H190V560H70Z" />
<glyph unicode="j" glyph-name="j" horiz-adv-x="265" d="M40 -210Q10 -210 -15 -204T-60 -190V-140H10Q28 -140 42 -130T66 -97T75 -40V500H195V-40Q195 -110 174 -146T118 -196T40 -210ZM75 560V680H195V560H75Z" />
<glyph unicode="k" glyph-name="k" horiz-adv-x="460" d="M70 0V700H190V285L310 500H440L305 265L450 0H320L190 245V0H70Z" />
<glyph unicode="l" glyph-name="l" horiz-adv-x="260" d="M70 0V700H190V0H70Z" />
<glyph unicode="m" glyph-name="m" horiz-adv-x="740" d="M65 0V500H150L165 470H170Q186 485 213 497T285 510Q323 510 349 500T395 470Q418 489 449 499T525 510Q565 510 599 497T654 450T675 350V0H555V350Q555 385 544 404T515 432T480 440Q461 440 446 436T420
425Q424 414 427 394T430 350V0H310V350Q310 385 299 404T272 432T240 440Q221 440 207 434T185 420V0H65Z" />
<glyph unicode="n" glyph-name="n" horiz-adv-x="505" d="M65 0V500H150L165 470H170Q186 485 213 497T285 510Q328 510 363 497T419 450T440 350V0H320V350Q320 403 295 421T240 440Q221 440 207 434T185 420V0H65Z" />
<glyph unicode="o" glyph-name="o" horiz-adv-x="480" d="M240 -10Q175 -10 131 15T63 98T40 250Q40 345 63 402T130 484T240 510Q305 510 349 485T417 402T440 250Q440 155 417 98T350 16T240 -10ZM240 55Q263 55 281 71T309 130T320 250Q320 328 310 370T281
428T240 445Q218 445 200 429T171 370T160 250Q160 173 170 131T199 72T240 55Z" />
<glyph unicode="p" glyph-name="p" horiz-adv-x="490" d="M65 -200V500H150L165 470H170Q186 485 212 497T280 510Q330 510 368 485T428 402T450 250Q450 155 428 98T366 16T270 -10Q244 -10 223 -3T185 15V-200H65ZM240 60Q265 60 285 76T318 134T330 250Q330
325 318 366T286 424T240 440Q221 440 209 434T185 420V80Q193 73 207 67T240 60Z" />
<glyph unicode="q" glyph-name="q" horiz-adv-x="490" d="M305 -200V15Q289 4 268 -3T220 -10Q165 -10 125 15T62 98T40 250Q40 345 64 402T136 484T260 510Q313 510 350 503T425 480V-200H305ZM250 60Q269 60 283 66T305 80V440H260Q230 440 208 424T173 367T160
250Q160 175 172 134T204 77T250 60Z" />
<glyph unicode="r" glyph-name="r" horiz-adv-x="360" d="M65 0V500H150L165 460H170Q186 475 213 487T285 500H350V415H240Q221 415 207 409T185 395V0H65Z" />
<glyph unicode="s" glyph-name="s" horiz-adv-x="415" d="M170 -10Q133 -10 98 -4T40 10V60H150Q206 60 235 76T265 130Q265 156 248 172T205 201T148 225T91 255T47 300T30 370Q30 453 80 481T225 510Q263 510 298 504T355 490V440H245Q204 440 177 425T150 380Q150
354 167 338T210 309T267 285T324 255T368 210T385 140Q385 80 362 48T291 3T170 -10Z" />
<glyph unicode="t" glyph-name="t" horiz-adv-x="365" d="M230 -10Q188 -10 153 3T96 53T75 160V415H20V490H75V610H195V490H330V435Q308 428 273 422T200 415H195V160Q195 120 205 99T230 69T260 60H350V10Q338 5 317 1T273 -7T230 -10Z" />
<glyph unicode="u" glyph-name="u" horiz-adv-x="505" d="M220 -10Q178 -10 143 3T86 50T65 150V500H185V150Q185 98 210 79T265 60Q284 60 298 66T320 80V500H440V0H355L340 30H335Q319 15 292 3T220 -10Z" />
<glyph unicode="v" glyph-name="v" horiz-adv-x="470" d="M160 0L15 500H135L233 125H237L335 500H455L310 0H160Z" />
<glyph unicode="w" glyph-name="w" horiz-adv-x="650" d="M115 0L15 500H135L196 150H200L280 400H370L450 150H454L515 500H635L535 0H405L327 245H323L245 0H115Z" />
<glyph unicode="x" glyph-name="x" horiz-adv-x="430" d="M10 0L130 255L15 500H140L215 325L290 500H415L300 255L420 0H295L215 185L135 0H10Z" />
<glyph unicode="y" glyph-name="y" horiz-adv-x="505" d="M225 -210Q188 -210 153 -204T95 -190V-140H205Q261 -140 290 -105T320 20Q301 5 276 -2T220 -10Q178 -10 143 3T86 50T65 150V500H185V150Q185 98 210 79T265 60Q284 60 298 66T320 80V500H440V40Q440
-50 417 -105T346 -185T225 -210Z" />
<glyph unicode="z" glyph-name="z" horiz-adv-x="400" d="M20 0V70L240 425H30V500H380V430L160 75H375V0H20Z" />
<glyph unicode="{" glyph-name="braceleft" horiz-adv-x="300" d="M300 -180Q233 -180 187 -167T118 -117T95 -10V120Q95 180 75 207T20 245V315Q54 326 74 353T95 440V570Q95 640 118 676T187 726T300 740V670Q266 670 241 650T215 570V460Q215 405 203 372T171
319T125 282V278Q150 262 170 242T203 188T215 100V-10Q215 -54 227 -75T258 -103T300 -110V-180Z" />
<glyph unicode="|" glyph-name="bar" horiz-adv-x="260" d="M70 -200V700H190V-200H70Z" />
<glyph unicode="}" glyph-name="braceright" horiz-adv-x="300" d="M0 -180V-110Q23 -110 42 -104T73 -76T85 -10V100Q85 155 97 188T129 241T175 278V282Q150 299 130 319T97 372T85 460V570Q85 630 60 650T0 670V740Q68 740 113 727T182 677T205 570V440Q205
380 225 353T280 315V245Q246 234 226 207T205 120V-10Q205 -80 182 -116T114 -166T0 -180Z" />
<glyph unicode="~" glyph-name="asciitilde" horiz-adv-x="460" d="M30 190Q30 276 57 325T155 375Q189 375 210 363T247 335T275 307T305 295Q328 295 339 315T350 370H430Q430 284 403 235T305 185Q271 185 250 197T213 225T185 253T155 265Q133 265 122 245T110
190H30Z" />
<glyph unicode="&#xa0;" glyph-name="uni00A0" horiz-adv-x="250" />
<glyph unicode="&#xa1;" glyph-name="exclamdown" horiz-adv-x="260" d="M60 0L80 515H180L200 0H60ZM70 590V710H190V590H70Z" />
<glyph unicode="&#xa2;" glyph-name="cent" horiz-adv-x="395" d="M225 -60V-9Q163 -5 122 22T61 105T40 250Q40 341 61 397T123 480T225 509V570H295V506Q317 503 336 499T370 490V440H295V60H380V10Q364 5 342 0T295 -7V-60H225ZM225 68V434Q195 422 178 381T160
250Q160 165 177 123T225 68Z" />
<glyph unicode="&#xa3;" glyph-name="sterling" horiz-adv-x="435" d="M45 0V60Q60 70 70 86T85 131T90 210V315H35V395H90V500Q90 590 113 635T185 695T305 710Q335 710 360 704T405 690V635H305Q278 635 257 625T223 587T210 500V395H355V315H210V234Q210 167
195 134T160 84V80H415V0H45Z" />
<glyph unicode="&#xa4;" glyph-name="currency" horiz-adv-x="520" d="M80 125L20 185L90 255Q79 270 72 297T65 350Q65 376 72 403T90 445L20 515L80 575L150 510Q165 521 194 530T260 540Q298 540 326 531T370 510L440 575L500 515L430 445Q441 430 448 403T455
350Q455 324 448 297T430 255L500 185L440 125L370 190Q355 179 327 170T260 160Q223 160 194 169T150 190L80 125ZM260 235Q290 235 315 264T340 350Q340 406 315 435T260 465Q230 465 205 436T180 350Q180 294 205 265T260 235Z" />
<glyph unicode="&#xa5;" glyph-name="yen" horiz-adv-x="480" d="M180 0V195H65V275H157L139 325H65V405H110L5 700H130L240 359L350 700H475L369 405H415V325H341L323 275H415V195H300V0H180Z" />
<glyph unicode="&#xa6;" glyph-name="brokenbar" horiz-adv-x="260" d="M70 310V680H190V310H70ZM70 -200V170H190V-200H70Z" />
<glyph unicode="&#xa7;" glyph-name="section" horiz-adv-x="465" d="M205 -210Q160 -210 122 -204T60 -190V-140H185Q245 -140 275 -114T305 -50Q305 -19 286 1T237 38T173 70T109 108T59 165T40 250Q40 306 69 344T140 405Q103 428 77 459T50 550Q50 618 102
664T260 710Q305 710 344 704T405 690V640H280Q228 640 199 614T170 550Q170 519 188 499T236 462T297 430T359 392T406 335T425 250Q425 193 397 156T330 100Q368 78 396 44T425 -50Q425 -117 372 -163T205 -210ZM255 135Q278 150 291 177T305 250Q305 278 292
299T257 336T210 365Q188 350 174 323T160 250Q160 223 173 202T208 164T255 135Z" />
<glyph unicode="&#xa8;" glyph-name="dieresis" horiz-adv-x="310" d="M180 570V690H290V570H180ZM20 570V690H130V570H20Z" />
<glyph unicode="&#xa9;" glyph-name="copyright" horiz-adv-x="840" d="M420 -20Q308 -20 224 26T92 156T45 350Q45 460 92 543T223 673T420 720Q533 720 617 674T748 544T795 350Q795 240 748 157T617 27T420 -20ZM430 130Q387 130 353 139T294 172T258 239T245
350Q245 418 257 461T294 527T352 560T430 570Q471 570 502 564T555 550V500H450Q423 500 402 490T368 447T355 350Q355 285 367 253T401 211T450 200H565V150Q543 143 507 137T430 130ZM420 50Q503 50 564 85T660 188T695 350Q695 445 661 512T565 614T420 650Q338
650 276 615T180 512T145 350Q145 255 179 188T276 86T420 50Z" />
<glyph unicode="&#xaa;" glyph-name="ordfeminine" horiz-adv-x="305" d="M125 395Q88 395 59 416T30 490Q30 546 60 568T135 590Q148 590 160 589T181 587T190 585V600Q190 623 176 634T135 645H55V693Q70 698 94 701T145 705Q209 705 242 685T275 600V400H205L195
420Q180 409 164 402T125 395ZM155 455Q170 455 180 457T190 460V530H155Q136 530 126 520T115 490Q115 475 125 465T155 455Z" />
<glyph unicode="&#xab;" glyph-name="guillemotleft" horiz-adv-x="510" d="M395 20L220 250L395 480L480 425L350 253V247L480 75L395 20ZM195 20L20 250L195 480L280 425L150 253V247L280 75L195 20Z" />
<glyph unicode="&#xac;" glyph-name="logicalnot" horiz-adv-x="445" d="M330 240L315 335H30V415H415V240H330Z" />
<glyph unicode="&#xad;" glyph-name="uni00AD" horiz-adv-x="360" d="M30 260V340H330V260H30Z" />
<glyph unicode="&#xae;" glyph-name="registered" horiz-adv-x="840" d="M420 -20Q308 -20 224 26T92 156T45 350Q45 460 92 543T223 673T420 720Q533 720 617 674T748 544T795 350Q795 240 748 157T617 27T420 -20ZM420 50Q503 50 564 85T660 188T695 350Q695
445 661 512T565 614T420 650Q338 650 276 615T180 512T145 350Q145 255 179 188T276 86T420 50ZM265 140V550Q291 558 324 564T410 570Q500 570 545 538T590 430Q590 388 578 363T548 326T515 305L600 140H485L415 285H375V140H265ZM375 355H410Q440 355 460 372T480
430Q480 468 460 484T410 500H375V355Z" />
<glyph unicode="&#xaf;" glyph-name="overscore" horiz-adv-x="280" d="M20 630V700H260V630H20Z" />
<glyph unicode="&#xb0;" glyph-name="degree" horiz-adv-x="410" d="M205 390Q126 390 83 432T40 550Q40 625 83 667T205 710Q284 710 327 668T370 550Q370 475 327 433T205 390ZM205 460Q228 460 246 482T265 550Q265 595 247 617T205 640Q183 640 164 618T145
550Q145 505 164 483T205 460Z" />
<glyph unicode="&#xb1;" glyph-name="plusminus" horiz-adv-x="450" d="M180 150V300H30V380H180V540H270V380H420V300H270V150H180ZM30 45V125H420V45H30Z" />
<glyph unicode="&#xb2;" glyph-name="uni00B2" horiz-adv-x="270" d="M30 400V465Q83 506 119 542T155 605Q155 620 144 632T110 645H40V694Q55 699 79 702T125 705Q185 705 212 680T240 605Q240 571 213 538T125 460H240V400H30Z" />
<glyph unicode="&#xb3;" glyph-name="uni00B3" horiz-adv-x="270" d="M110 395Q88 395 67 398T30 406V455H110Q133 455 144 465T155 490Q155 505 145 515T115 525H65V585H110Q129 585 137 594T145 615Q145 626 136 635T104 645H30V694Q44 699 66 702T115 705Q168
705 199 687T230 620Q230 594 215 579T185 560Q204 556 222 538T240 485Q240 433 207 414T110 395Z" />
<glyph unicode="&#xb4;" glyph-name="acute" horiz-adv-x="190" d="M20 560L55 690H170L95 560H20Z" />
<glyph unicode="&#xb5;" glyph-name="uni00B5" horiz-adv-x="505" d="M65 -200V500H185V170Q185 118 210 89T265 60Q284 60 298 66T320 80V500H440V0H355L340 30H335Q316 11 296 1T245 -10Q223 -10 208 -1T185 15V-200H65Z" />
<glyph unicode="&#xb6;" glyph-name="paragraph" horiz-adv-x="565" d="M225 -200V330Q131 330 81 379T30 515Q30 563 52 605T119 673T225 700H545V620H485V-200H375V620H335V-200H225Z" />
<glyph unicode="&#xb7;" glyph-name="middot" horiz-adv-x="280" d="M80 290V410H200V290H80Z" />
<glyph unicode="&#xb8;" glyph-name="cedilla" horiz-adv-x="215" d="M95 -170Q58 -170 39 -163T20 -155V-121H85Q108 -121 114 -115T120 -100Q120 -92 115 -86T90 -79H35V15H90V-30H105Q150 -30 172 -50T195 -100Q195 -130 170 -150T95 -170Z" />
<glyph unicode="&#xb9;" glyph-name="uni00B9" horiz-adv-x="200" d="M85 400V640H30V688Q45 693 72 696T130 700H170V400H85Z" />
<glyph unicode="&#xba;" glyph-name="ordmasculine" horiz-adv-x="320" d="M160 395Q104 395 67 433T30 550Q30 629 67 667T160 705Q216 705 253 667T290 550Q290 471 253 433T160 395ZM160 455Q179 455 192 476T205 550Q205 603 192 624T160 645Q141 645 128
624T115 550Q115 498 128 477T160 455Z" />
<glyph unicode="&#xbb;" glyph-name="guillemotright" horiz-adv-x="510" d="M315 20L230 75L360 247V253L230 425L315 480L490 250L315 20ZM115 20L30 75L160 247V253L30 425L115 480L290 250L115 20Z" />
<glyph unicode="&#xbc;" glyph-name="onequarter" horiz-adv-x="590" d="M40 0L430 700H540L150 0H40ZM425 0V55H285V115L425 300H510V115H535V55H510V0H425ZM360 115H425V200L360 115ZM105 400V640H50V688Q65 693 92 696T150 700H190V400H105Z" />
<glyph unicode="&#xbd;" glyph-name="onehalf" horiz-adv-x="620" d="M50 0L440 700H550L160 0H50ZM350 0V65Q403 106 439 142T475 205Q475 220 464 232T430 245H360V294Q375 299 399 302T445 305Q505 305 532 280T560 205Q560 171 533 138T445 60H560V0H350ZM120
400V640H65V688Q80 693 107 696T165 700H205V400H120Z" />
<glyph unicode="&#xbe;" glyph-name="threequarters" horiz-adv-x="605" d="M55 0L445 700H555L165 0H55ZM440 0V55H300V115L440 300H525V115H550V55H525V0H440ZM375 115H440V200L375 115ZM120 395Q98 395 77 398T40 406V455H120Q143 455 154 465T165 490Q165
505 155 515T125 525H75V585H120Q139 585 147 594T155 615Q155 626 146 635T114 645H40V694Q54 699 76 702T125 705Q178 705 209 687T240 620Q240 594 225 579T195 560Q214 556 232 538T250 485Q250 433 217 414T120 395Z" />
<glyph unicode="&#xbf;" glyph-name="questiondown" horiz-adv-x="395" d="M225 -10Q131 -10 81 40T30 180Q30 231 45 266T83 329T129 383T170 440T190 515H290Q290 459 276 422T241 358T199 306T164 252T150 180Q150 124 178 95T255 65H385V10Q363 3 321 -3T225
-10ZM180 590V710H300V590H180Z" />
<glyph unicode="&#xc0;" glyph-name="Agrave" horiz-adv-x="540" d="M15 0L195 700H345L525 0H400L356 175H184L140 0H15ZM200 255H339L272 540H268L200 255ZM225 760L150 890H265L300 760H225Z" />
<glyph unicode="&#xc1;" glyph-name="Aacute" horiz-adv-x="540" d="M15 0L195 700H345L525 0H400L356 175H184L140 0H15ZM200 255H339L272 540H268L200 255ZM237 760L272 890H387L312 760H237Z" />
<glyph unicode="&#xc2;" glyph-name="Acircumflex" horiz-adv-x="540" d="M15 0L195 700H345L525 0H400L356 175H184L140 0H15ZM200 255H339L272 540H268L200 255ZM137 750L217 880H322L402 750H325L269 820L213 750H137Z" />
<glyph unicode="&#xc3;" glyph-name="Atilde" horiz-adv-x="540" d="M15 0L195 700H345L525 0H400L356 175H184L140 0H15ZM200 255H339L272 540H268L200 255ZM320 760Q303 760 291 767T268 785T248 802T230 810Q205 810 205 770H145Q145 838 165 864T220 890Q237
890 249 883T272 865T292 848T310 840Q335 840 335 880H395Q395 813 375 787T320 760Z" />
<glyph unicode="&#xc4;" glyph-name="Adieresis" horiz-adv-x="540" d="M15 0L195 700H345L525 0H400L356 175H184L140 0H15ZM200 255H339L272 540H268L200 255ZM295 770V890H405V770H295ZM135 770V890H245V770H135Z" />
<glyph unicode="&#xc5;" glyph-name="Aring" horiz-adv-x="540" d="M15 0L195 700H345L525 0H400L356 175H184L140 0H15ZM200 255H339L272 540H268L200 255ZM270 735Q229 735 202 759T175 820Q175 858 202 881T270 905Q311 905 338 882T365 820Q365 783 338 759T270
735ZM270 790Q281 790 290 797T300 820Q300 835 291 842T270 850Q259 850 250 843T240 820Q240 805 249 798T270 790Z" />
<glyph unicode="&#xc6;" glyph-name="AE" horiz-adv-x="755" d="M0 0L240 700H715V620H470V405H685V325H470V80H715V0H350V175H180L119 0H0ZM207 255H350V620H331L207 255Z" />
<glyph unicode="&#xc7;" glyph-name="Ccedilla" horiz-adv-x="455" d="M280 -10Q203 -10 151 21T72 131T45 350Q45 490 71 568T147 678T270 710Q323 710 365 704T430 690V635H310Q268 635 235 611T184 525T165 350Q165 238 184 176T238 90T320 65H440V10Q418 3
376 -3T280 -10ZM279 -170Q242 -170 223 -163T204 -155V-121H269Q292 -121 298 -115T304 -100Q304 -92 299 -86T274 -79H219V15H274V-30H289Q334 -30 356 -50T379 -100Q379 -130 354 -150T279 -170Z" />
<glyph unicode="&#xc8;" glyph-name="Egrave" horiz-adv-x="475" d="M70 0V700H435V620H190V405H405V325H190V80H435V0H70ZM227 760L152 890H267L302 760H227Z" />
<glyph unicode="&#xc9;" glyph-name="Eacute" horiz-adv-x="475" d="M70 0V700H435V620H190V405H405V325H190V80H435V0H70ZM205 760L240 890H355L280 760H205Z" />
<glyph unicode="&#xca;" glyph-name="Ecircumflex" horiz-adv-x="475" d="M70 0V700H435V620H190V405H405V325H190V80H435V0H70ZM115 750L195 880H300L380 750H303L247 820L191 750H115Z" />
<glyph unicode="&#xcb;" glyph-name="Edieresis" horiz-adv-x="475" d="M70 0V700H435V620H190V405H405V325H190V80H435V0H70ZM277 770V890H387V770H277ZM117 770V890H227V770H117Z" />
<glyph unicode="&#xcc;" glyph-name="Igrave" horiz-adv-x="260" d="M70 0V700H190V0H70ZM92 760L17 890H132L167 760H92Z" />
<glyph unicode="&#xcd;" glyph-name="Iacute" horiz-adv-x="260" d="M70 0V700H190V0H70ZM97 760L132 890H247L172 760H97Z" />
<glyph unicode="&#xce;" glyph-name="Icircumflex" horiz-adv-x="260" d="M70 0V700H190V0H70ZM-5 750L75 880H180L260 750H183L127 820L71 750H-5Z" />
<glyph unicode="&#xcf;" glyph-name="Idieresis" horiz-adv-x="260" d="M70 0V700H190V0H70ZM155 770V890H265V770H155ZM-5 770V890H105V770H-5Z" />
<glyph unicode="&#xd0;" glyph-name="Eth" horiz-adv-x="560" d="M260 -10Q204 -10 164 -6T85 10V315H10V395H85V690Q123 701 163 705T260 710Q343 710 399 676T485 564T515 350Q515 215 486 136T400 24T260 -10ZM205 65H260Q301 65 331 89T378 176T395 350Q395
463 378 524T331 610T260 635H205V395H310V315H205V65Z" />
<glyph unicode="&#xd1;" glyph-name="Ntilde" horiz-adv-x="570" d="M70 0V700H190L380 240H385V700H500V0H380L190 460H185V0H70ZM333 760Q316 760 304 767T281 785T261 802T243 810Q218 810 218 770H158Q158 838 178 864T233 890Q250 890 262 883T285 865T305
848T323 840Q348 840 348 880H408Q408 813 388 787T333 760Z" />
<glyph unicode="&#xd2;" glyph-name="Ograve" horiz-adv-x="550" d="M275 -10Q205 -10 154 23T74 136T45 350Q45 485 73 563T153 676T275 710Q345 710 396 676T476 564T505 350Q505 215 477 136T397 24T275 -10ZM275 60Q296 60 315 73T350 119T375 207T385 350Q385
436 376 492T351 581T316 626T275 640Q254 640 235 627T200 581T175 493T165 350Q165 264 174 208T199 119T234 74T275 60ZM230 760L155 890H270L305 760H230Z" />
<glyph unicode="&#xd3;" glyph-name="Oacute" horiz-adv-x="550" d="M275 -10Q205 -10 154 23T74 136T45 350Q45 485 73 563T153 676T275 710Q345 710 396 676T476 564T505 350Q505 215 477 136T397 24T275 -10ZM275 60Q296 60 315 73T350 119T375 207T385 350Q385
436 376 492T351 581T316 626T275 640Q254 640 235 627T200 581T175 493T165 350Q165 264 174 208T199 119T234 74T275 60ZM242 760L277 890H392L317 760H242Z" />
<glyph unicode="&#xd4;" glyph-name="Ocircumflex" horiz-adv-x="550" d="M275 -10Q205 -10 154 23T74 136T45 350Q45 485 73 563T153 676T275 710Q345 710 396 676T476 564T505 350Q505 215 477 136T397 24T275 -10ZM275 60Q296 60 315 73T350 119T375 207T385
350Q385 436 376 492T351 581T316 626T275 640Q254 640 235 627T200 581T175 493T165 350Q165 264 174 208T199 119T234 74T275 60ZM142 750L222 880H327L407 750H330L274 820L218 750H142Z" />
<glyph unicode="&#xd5;" glyph-name="Otilde" horiz-adv-x="550" d="M275 -10Q205 -10 154 23T74 136T45 350Q45 485 73 563T153 676T275 710Q345 710 396 676T476 564T505 350Q505 215 477 136T397 24T275 -10ZM275 60Q296 60 315 73T350 119T375 207T385 350Q385
436 376 492T351 581T316 626T275 640Q254 640 235 627T200 581T175 493T165 350Q165 264 174 208T199 119T234 74T275 60ZM325 760Q308 760 296 767T273 785T253 802T235 810Q210 810 210 770H150Q150 838 170 864T225 890Q242 890 254 883T277 865T297 848T315
840Q340 840 340 880H400Q400 813 380 787T325 760Z" />
<glyph unicode="&#xd6;" glyph-name="Odieresis" horiz-adv-x="550" d="M275 -10Q205 -10 154 23T74 136T45 350Q45 485 73 563T153 676T275 710Q345 710 396 676T476 564T505 350Q505 215 477 136T397 24T275 -10ZM275 60Q296 60 315 73T350 119T375 207T385
350Q385 436 376 492T351 581T316 626T275 640Q254 640 235 627T200 581T175 493T165 350Q165 264 174 208T199 119T234 74T275 60ZM300 770V890H410V770H300ZM140 770V890H250V770H140Z" />
<glyph unicode="&#xd7;" glyph-name="multiply" horiz-adv-x="420" d="M100 160L40 220L150 330L40 440L100 500L210 390L320 500L380 440L270 330L380 220L320 160L210 270L100 160Z" />
<glyph unicode="&#xd8;" glyph-name="Oslash" horiz-adv-x="550" d="M275 -10Q224 -10 183 7T112 62L75 10L25 50L78 125Q62 166 54 221T45 350Q45 485 73 563T153 676T275 710Q325 710 366 693T438 637L475 690L525 650L472 575Q488 534 496 479T505 350Q505
215 477 136T397 24T275 -10ZM275 60Q296 60 315 73T350 119T375 207T385 350Q385 377 384 400T381 445L183 164Q199 105 223 83T275 60ZM169 254L366 535Q351 595 326 617T275 640Q254 640 235 627T200 581T175 493T165 350Q165 323 166 299T169 254Z" />
<glyph unicode="&#xd9;" glyph-name="Ugrave" horiz-adv-x="550" d="M275 -10Q203 -10 155 15T84 95T60 240V700H180V240Q180 170 192 131T226 76T275 60Q303 60 324 76T357 131T370 240V700H490V240Q490 150 467 95T396 15T275 -10ZM235 760L160 890H275L310 760H235Z" />
<glyph unicode="&#xda;" glyph-name="Uacute" horiz-adv-x="550" d="M275 -10Q203 -10 155 15T84 95T60 240V700H180V240Q180 170 192 131T226 76T275 60Q303 60 324 76T357 131T370 240V700H490V240Q490 150 467 95T396 15T275 -10ZM242 760L277 890H392L317 760H242Z" />
<glyph unicode="&#xdb;" glyph-name="Ucircumflex" horiz-adv-x="550" d="M275 -10Q203 -10 155 15T84 95T60 240V700H180V240Q180 170 192 131T226 76T275 60Q303 60 324 76T357 131T370 240V700H490V240Q490 150 467 95T396 15T275 -10ZM142 750L222 880H327L407
750H330L274 820L218 750H142Z" />
<glyph unicode="&#xdc;" glyph-name="Udieresis" horiz-adv-x="550" d="M275 -10Q203 -10 155 15T84 95T60 240V700H180V240Q180 170 192 131T226 76T275 60Q303 60 324 76T357 131T370 240V700H490V240Q490 150 467 95T396 15T275 -10ZM300 770V890H410V770H300ZM140
770V890H250V770H140Z" />
<glyph unicode="&#xdd;" glyph-name="Yacute" horiz-adv-x="480" d="M180 0V210L5 700H130L240 359L350 700H475L300 210V0H180ZM207 760L242 890H357L282 760H207Z" />
<glyph unicode="&#xde;" glyph-name="Thorn" horiz-adv-x="525" d="M70 -10V710H190V635Q348 628 419 555T490 350Q490 219 419 146T190 65V-10H70ZM190 140Q273 144 321 198T370 350Q370 448 322 502T190 560V140Z" />
<glyph unicode="&#xdf;" glyph-name="germandbls" horiz-adv-x="550" d="M340 -10Q318 -10 288 -4T235 10V60H320Q354 60 379 77T405 135Q405 165 389 185T348 221T298 256T257 300T240 365Q240 399 256 422T292 463T329 502T345 550Q345 595 321 615T270 635Q236
635 211 603T185 495V0H65V495Q65 604 117 657T270 710Q364 710 414 664T465 550Q465 511 449 487T413 445T376 409T360 365Q360 344 376 328T417 294T467 256T508 206T525 135Q525 78 503 47T439 3T340 -10Z" />
<glyph unicode="&#xe0;" glyph-name="agrave" horiz-adv-x="475" d="M195 -10Q153 -10 118 3T61 50T40 150Q40 215 61 249T120 297T205 310Q228 310 249 307T290 300V340Q290 400 262 420T185 440H85V490Q108 498 141 504T205 510Q273 510 318 497T387 447T410
340V0H325L310 30H305Q289 15 263 3T195 -10ZM235 60Q254 60 268 66T290 80V240H235Q218 240 201 232T172 205T160 150Q160 115 171 96T200 68T235 60ZM193 560L118 690H233L268 560H193Z" />
<glyph unicode="&#xe1;" glyph-name="aacute" horiz-adv-x="475" d="M195 -10Q153 -10 118 3T61 50T40 150Q40 215 61 249T120 297T205 310Q228 310 249 307T290 300V340Q290 400 262 420T185 440H85V490Q108 498 141 504T205 510Q273 510 318 497T387 447T410
340V0H325L310 30H305Q289 15 263 3T195 -10ZM235 60Q254 60 268 66T290 80V240H235Q218 240 201 232T172 205T160 150Q160 115 171 96T200 68T235 60ZM205 560L240 690H355L280 560H205Z" />
<glyph unicode="&#xe2;" glyph-name="acircumflex" horiz-adv-x="475" d="M195 -10Q153 -10 118 3T61 50T40 150Q40 215 61 249T120 297T205 310Q228 310 249 307T290 300V340Q290 400 262 420T185 440H85V490Q108 498 141 504T205 510Q273 510 318 497T387 447T410
340V0H325L310 30H305Q289 15 263 3T195 -10ZM235 60Q254 60 268 66T290 80V240H235Q218 240 201 232T172 205T160 150Q160 115 171 96T200 68T235 60ZM105 550L185 680H290L370 550H293L237 620L181 550H105Z" />
<glyph unicode="&#xe3;" glyph-name="atilde" horiz-adv-x="475" d="M195 -10Q153 -10 118 3T61 50T40 150Q40 215 61 249T120 297T205 310Q228 310 249 307T290 300V340Q290 400 262 420T185 440H85V490Q108 498 141 504T205 510Q273 510 318 497T387 447T410
340V0H325L310 30H305Q289 15 263 3T195 -10ZM235 60Q254 60 268 66T290 80V240H235Q218 240 201 232T172 205T160 150Q160 115 171 96T200 68T235 60ZM288 560Q271 560 259 567T236 585T216 602T198 610Q173 610 173 570H113Q113 638 133 664T188 690Q205 690
217 683T240 665T260 648T278 640Q303 640 303 680H363Q363 613 343 587T288 560Z" />
<glyph unicode="&#xe4;" glyph-name="adieresis" horiz-adv-x="475" d="M195 -10Q153 -10 118 3T61 50T40 150Q40 215 61 249T120 297T205 310Q228 310 249 307T290 300V340Q290 400 262 420T185 440H85V490Q108 498 141 504T205 510Q273 510 318 497T387 447T410
340V0H325L310 30H305Q289 15 263 3T195 -10ZM235 60Q254 60 268 66T290 80V240H235Q218 240 201 232T172 205T160 150Q160 115 171 96T200 68T235 60ZM263 570V690H373V570H263ZM103 570V690H213V570H103Z" />
<glyph unicode="&#xe5;" glyph-name="aring" horiz-adv-x="475" d="M195 -10Q153 -10 118 3T61 50T40 150Q40 215 61 249T120 297T205 310Q228 310 249 307T290 300V340Q290 400 262 420T185 440H85V490Q108 498 141 504T205 510Q273 510 318 497T387 447T410
340V0H325L310 30H305Q289 15 263 3T195 -10ZM235 60Q254 60 268 66T290 80V240H235Q218 240 201 232T172 205T160 150Q160 115 171 96T200 68T235 60ZM238 535Q197 535 170 559T143 620Q143 658 170 681T238 705Q279 705 306 682T333 620Q333 583 306 559T238
535ZM238 590Q249 590 258 597T268 620Q268 635 259 642T238 650Q227 650 218 643T208 620Q208 605 217 598T238 590Z" />
<glyph unicode="&#xe6;" glyph-name="ae" horiz-adv-x="710" d="M205 -10Q158 -10 121 2T62 47T40 140Q40 200 61 232T120 277T205 290Q228 290 249 287T290 280V340Q290 400 262 420T185 440H85V490Q108 498 141 504T205 510Q261 510 297 493T355 450Q378 476
408 493T480 510Q540 510 582 484T647 400T670 250V220H410V210Q410 126 441 93T535 60H645V10Q623 3 588 -3T515 -10Q451 -10 415 7T355 50Q333 24 299 7T205 -10ZM235 60Q248 60 258 63T277 70T290 80V220H235Q209 220 185 203T160 140Q160 95 184 78T235 60ZM410
290H550Q550 353 541 386T516 432T480 445Q460 445 444 433T419 387T410 290Z" />
<glyph unicode="&#xe7;" glyph-name="ccedilla" horiz-adv-x="395" d="M250 -10Q180 -10 134 15T64 98T40 250Q40 345 63 402T130 484T240 510Q278 510 313 504T370 490V440H260Q230 440 208 424T173 367T160 250Q160 175 173 134T210 77T270 60H380V10Q358 3
323 -3T250 -10ZM239 -170Q202 -170 183 -163T164 -155V-121H229Q252 -121 258 -115T264 -100Q264 -92 259 -86T234 -79H179V15H234V-30H249Q294 -30 316 -50T339 -100Q339 -130 314 -150T239 -170Z" />
<glyph unicode="&#xe8;" glyph-name="egrave" horiz-adv-x="460" d="M265 -10Q188 -10 138 15T64 98T40 250Q40 345 62 402T127 484T230 510Q290 510 332 485T397 402T420 250V215H160Q160 129 190 95T285 60H395V10Q373 3 338 -3T265 -10ZM160 285H300Q300 350
291 384T266 432T230 445Q210 445 194 432T169 385T160 285ZM185 560L110 690H225L260 560H185Z" />
<glyph unicode="&#xe9;" glyph-name="eacute" horiz-adv-x="460" d="M265 -10Q188 -10 138 15T64 98T40 250Q40 345 62 402T127 484T230 510Q290 510 332 485T397 402T420 250V215H160Q160 129 190 95T285 60H395V10Q373 3 338 -3T265 -10ZM160 285H300Q300 350
291 384T266 432T230 445Q210 445 194 432T169 385T160 285ZM197 560L232 690H347L272 560H197Z" />
<glyph unicode="&#xea;" glyph-name="ecircumflex" horiz-adv-x="460" d="M265 -10Q188 -10 138 15T64 98T40 250Q40 345 62 402T127 484T230 510Q290 510 332 485T397 402T420 250V215H160Q160 129 190 95T285 60H395V10Q373 3 338 -3T265 -10ZM160 285H300Q300
350 291 384T266 432T230 445Q210 445 194 432T169 385T160 285ZM97 550L177 680H282L362 550H285L229 620L173 550H97Z" />
<glyph unicode="&#xeb;" glyph-name="edieresis" horiz-adv-x="460" d="M265 -10Q188 -10 138 15T64 98T40 250Q40 345 62 402T127 484T230 510Q290 510 332 485T397 402T420 250V215H160Q160 129 190 95T285 60H395V10Q373 3 338 -3T265 -10ZM160 285H300Q300
350 291 384T266 432T230 445Q210 445 194 432T169 385T160 285ZM255 570V690H365V570H255ZM95 570V690H205V570H95Z" />
<glyph unicode="&#xec;" glyph-name="igrave" horiz-adv-x="260" d="M70 0V500H190V0H70ZM341 560L266 690H381L416 560H341Z" />
<glyph unicode="&#xed;" glyph-name="iacute" horiz-adv-x="260" d="M70 0V500H190V0H70ZM97 560L132 690H247L172 560H97Z" />
<glyph unicode="&#xee;" glyph-name="icircumflex" horiz-adv-x="260" d="M70 0V500H190V0H70ZM253 550L333 680H438L518 550H441L385 620L329 550H253Z" />
<glyph unicode="&#xef;" glyph-name="idieresis" horiz-adv-x="260" d="M70 0V500H190V0H70ZM411 570V690H521V570H411ZM251 570V690H361V570H251Z" />
<glyph unicode="&#xf0;" glyph-name="eth" horiz-adv-x="485" d="M240 -10Q143 -10 92 44T40 215Q40 331 90 385T230 440Q260 440 282 433T320 415Q320 453 315 485T295 539L245 479L195 520L250 590Q224 613 178 633T79 660L85 710Q153 706 210 691T305 650L360
717L410 676L355 611Q393 573 416 505T440 350V215Q440 99 389 45T240 -10ZM240 55Q260 55 278 70T308 120T320 215V350Q313 358 298 364T260 370Q215 370 188 336T160 215Q160 155 171 120T201 70T240 55Z" />
<glyph unicode="&#xf1;" glyph-name="ntilde" horiz-adv-x="505" d="M65 0V500H150L165 470H170Q186 485 213 497T285 510Q328 510 363 497T419 450T440 350V0H320V350Q320 403 295 421T240 440Q221 440 207 434T185 420V0H65ZM292 560Q275 560 263 567T240 585T220
602T202 610Q177 610 177 570H117Q117 638 137 664T192 690Q209 690 221 683T244 665T264 648T282 640Q307 640 307 680H367Q367 613 347 587T292 560Z" />
<glyph unicode="&#xf2;" glyph-name="ograve" horiz-adv-x="480" d="M240 -10Q175 -10 131 15T63 98T40 250Q40 345 63 402T130 484T240 510Q305 510 349 485T417 402T440 250Q440 155 417 98T350 16T240 -10ZM240 55Q263 55 281 71T309 130T320 250Q320 328 310
370T281 428T240 445Q218 445 200 429T171 370T160 250Q160 173 170 131T199 72T240 55ZM195 560L120 690H235L270 560H195Z" />
<glyph unicode="&#xf3;" glyph-name="oacute" horiz-adv-x="480" d="M240 -10Q175 -10 131 15T63 98T40 250Q40 345 63 402T130 484T240 510Q305 510 349 485T417 402T440 250Q440 155 417 98T350 16T240 -10ZM240 55Q263 55 281 71T309 130T320 250Q320 328 310
370T281 428T240 445Q218 445 200 429T171 370T160 250Q160 173 170 131T199 72T240 55ZM207 560L242 690H357L282 560H207Z" />
<glyph unicode="&#xf4;" glyph-name="ocircumflex" horiz-adv-x="480" d="M240 -10Q175 -10 131 15T63 98T40 250Q40 345 63 402T130 484T240 510Q305 510 349 485T417 402T440 250Q440 155 417 98T350 16T240 -10ZM240 55Q263 55 281 71T309 130T320 250Q320
328 310 370T281 428T240 445Q218 445 200 429T171 370T160 250Q160 173 170 131T199 72T240 55ZM107 550L187 680H292L372 550H295L239 620L183 550H107Z" />
<glyph unicode="&#xf5;" glyph-name="otilde" horiz-adv-x="480" d="M240 -10Q175 -10 131 15T63 98T40 250Q40 345 63 402T130 484T240 510Q305 510 349 485T417 402T440 250Q440 155 417 98T350 16T240 -10ZM240 55Q263 55 281 71T309 130T320 250Q320 328 310
370T281 428T240 445Q218 445 200 429T171 370T160 250Q160 173 170 131T199 72T240 55ZM290 560Q273 560 261 567T238 585T218 602T200 610Q175 610 175 570H115Q115 638 135 664T190 690Q207 690 219 683T242 665T262 648T280 640Q305 640 305 680H365Q365 613
345 587T290 560Z" />
<glyph unicode="&#xf6;" glyph-name="odieresis" horiz-adv-x="480" d="M240 -10Q175 -10 131 15T63 98T40 250Q40 345 63 402T130 484T240 510Q305 510 349 485T417 402T440 250Q440 155 417 98T350 16T240 -10ZM240 55Q263 55 281 71T309 130T320 250Q320 328
310 370T281 428T240 445Q218 445 200 429T171 370T160 250Q160 173 170 131T199 72T240 55ZM265 570V690H375V570H265ZM105 570V690H215V570H105Z" />
<glyph unicode="&#xf7;" glyph-name="divide" horiz-adv-x="450" d="M30 255V345H420V255H30ZM175 85V195H275V85H175ZM175 405V515H275V405H175Z" />
<glyph unicode="&#xf8;" glyph-name="oslash" horiz-adv-x="490" d="M245 -10Q198 -10 162 2T100 43L70 10L25 60L65 104Q55 133 50 169T45 250Q45 345 68 402T135 484T245 510Q292 510 328 498T389 456L420 490L465 440L424 395Q435 367 440 331T445 250Q445
155 422 98T355 16T245 -10ZM245 55Q268 55 286 71T314 130T325 250Q325 260 325 269T324 287L176 126Q187 86 205 71T245 55ZM165 213L313 374Q303 415 285 430T245 445Q223 445 205 429T176 370T165 250Q165 241 165 232T165 213Z" />
<glyph unicode="&#xf9;" glyph-name="ugrave" horiz-adv-x="505" d="M220 -10Q178 -10 143 3T86 50T65 150V500H185V150Q185 98 210 79T265 60Q284 60 298 66T320 80V500H440V0H355L340 30H335Q319 15 292 3T220 -10ZM208 560L133 690H248L283 560H208Z" />
<glyph unicode="&#xfa;" glyph-name="uacute" horiz-adv-x="505" d="M220 -10Q178 -10 143 3T86 50T65 150V500H185V150Q185 98 210 79T265 60Q284 60 298 66T320 80V500H440V0H355L340 30H335Q319 15 292 3T220 -10ZM220 560L255 690H370L295 560H220Z" />
<glyph unicode="&#xfb;" glyph-name="ucircumflex" horiz-adv-x="505" d="M220 -10Q178 -10 143 3T86 50T65 150V500H185V150Q185 98 210 79T265 60Q284 60 298 66T320 80V500H440V0H355L340 30H335Q319 15 292 3T220 -10ZM123 550L203 680H308L388 550H311L255
620L199 550H123Z" />
<glyph unicode="&#xfc;" glyph-name="udieresis" horiz-adv-x="505" d="M220 -10Q178 -10 143 3T86 50T65 150V500H185V150Q185 98 210 79T265 60Q284 60 298 66T320 80V500H440V0H355L340 30H335Q319 15 292 3T220 -10ZM278 570V690H388V570H278ZM118 570V690H228V570H118Z"
/>
<glyph unicode="&#xfd;" glyph-name="yacute" horiz-adv-x="505" d="M225 -210Q188 -210 153 -204T95 -190V-140H205Q261 -140 290 -105T320 20Q301 5 276 -2T220 -10Q178 -10 143 3T86 50T65 150V500H185V150Q185 98 210 79T265 60Q284 60 298 66T320 80V500H440V40Q440
-50 417 -105T346 -185T225 -210ZM220 560L255 690H370L295 560H220Z" />
<glyph unicode="&#xfe;" glyph-name="thorn" horiz-adv-x="495" d="M70 -200V700H190V485Q206 496 227 503T275 510Q330 510 370 485T433 402T455 250Q455 155 433 98T371 16T275 -10Q249 -10 228 -3T190 15V-200H70ZM245 60Q270 60 290 76T323 134T335 250Q335
325 323 366T291 424T245 440Q226 440 212 434T190 420V80Q198 73 212 67T245 60Z" />
<glyph unicode="&#xff;" glyph-name="ydieresis" horiz-adv-x="505" d="M225 -210Q188 -210 153 -204T95 -190V-140H205Q261 -140 290 -105T320 20Q301 5 276 -2T220 -10Q178 -10 143 3T86 50T65 150V500H185V150Q185 98 210 79T265 60Q284 60 298 66T320 80V500H440V40Q440
-50 417 -105T346 -185T225 -210ZM278 570V690H388V570H278ZM118 570V690H228V570H118Z" />
<glyph unicode="&#x2013;" glyph-name="endash" horiz-adv-x="480" d="M30 240V320H450V240H30Z" />
<glyph unicode="&#x2014;" glyph-name="emdash" horiz-adv-x="660" d="M30 240V320H630V240H30Z" />
<glyph unicode="&#x2018;" glyph-name="quoteleft" horiz-adv-x="195" d="M40 475L80 705H160V475H40Z" />
<glyph unicode="&#x2019;" glyph-name="quoteright" horiz-adv-x="195" d="M40 475V705H160L120 475H40Z" />
<glyph unicode="&#x201a;" glyph-name="quotesinglbase" horiz-adv-x="195" d="M40 -120V110H160L120 -120H40Z" />
<glyph unicode="&#x201c;" glyph-name="quotedblleft" horiz-adv-x="365" d="M205 475L245 705H325V475H205ZM35 475L75 705H155V475H35Z" />
<glyph unicode="&#x201d;" glyph-name="quotedblright" horiz-adv-x="365" d="M210 475V705H330L290 475H210ZM40 475V705H160L120 475H40Z" />
<glyph unicode="&#x201e;" glyph-name="quotedblbase" horiz-adv-x="365" d="M210 -120V110H330L290 -120H210ZM40 -120V110H160L120 -120H40Z" />
<glyph unicode="&#x2022;" glyph-name="bullet" horiz-adv-x="270" d="M45 260V439H225V260H45Z" />
<glyph unicode="&#x2039;" glyph-name="guilsinglleft" horiz-adv-x="325" d="M210 0L20 250L210 500L295 445L150 253V247L295 55L210 0Z" />
<glyph unicode="&#x203a;" glyph-name="guilsinglright" horiz-adv-x="325" d="M115 0L30 55L175 247V253L30 445L115 500L305 250L115 0Z" />
</font>
</defs>
</svg>
